<svg fill="none" height="48" viewBox="0 0 48 48" width="48" xmlns="http://www.w3.org/2000/svg"><path clip-rule="evenodd" d="m24 33c4.9706 0 9-4.0294 9-9 0-1.0022-.1638-1.9662-.4662-2.8666-.0148-.0443-.0587-.072-.1052-.0668l-5.0244.5582c-.0763.0085-.1153.0966-.0727.1605.4223.6341.6685 1.3957.6685 2.2147 0 .8669-.2758 1.6695-.7444 2.3246l-3.7627 6.5171c-.0371.0642.0062.1449.0803.1484.1414.0066.2837.0099.4268.0099zm-1.7265-.2453c-.0188.0429-.0652.0671-.1112.0575-4.0892-.8483-7.1623-4.4714-7.1623-8.8122 0-1.791.5231-3.4598 1.425-4.8619.04-.0623.1314-.0594.1685.0048l3.78 6.5472c.0983.2104.2143.4108.3461.5994l.0118.0204c.0003.0006.001.0008.0016.0005.0005-.0003.0012-.0002.0015.0003.7247 1.0222 1.9172 1.6893 3.2655 1.6893.0654 0 .1305-.0016.1951-.0047.076-.0036.1314.0736.1009.1433zm1.7265-17.7547c-2.6968 0-5.1165 1.1861-6.766 3.0651-.0308.0351-.0328.0868-.0051.1243l2.9986 4.0762c.0457.0621.1419.0514.1757-.0179.6496-1.3309 2.0161-2.2477 3.5968-2.2477h7.9031c.0742 0 .1225-.0781.0882-.1439-1.4992-2.8853-4.5151-4.8561-7.9913-4.8561zm0 12c1.6569 0 3-1.3431 3-3s-1.3431-3-3-3-3 1.3431-3 3 1.3431 3 3 3z" fill="#222" fill-rule="evenodd"/></svg>